<svg width="857" height="38" viewBox="0 0 857 38" fill="none" xmlns="http://www.w3.org/2000/svg">
<path d="M425 0L425.658 18.3417L444 19L425.658 19.6583L425 38L424.342 19.6583L406 19L424.342 18.3417L425 0Z" fill="#F2F2F2"/>
<path d="M376.5 8L376.864 18.1362L387 18.5L376.864 18.8638L376.5 29L376.136 18.8638L366 18.5L376.136 18.1362L376.5 8Z" fill="#F2F2F2"/>
<path d="M473.5 8L473.864 18.1362L484 18.5L473.864 18.8638L473.5 29L473.136 18.8638L463 18.5L473.136 18.1362L473.5 8Z" fill="#F2F2F2"/>
<line y1="18.75" x2="326" y2="18.75" stroke="#F2F2F2" stroke-width="0.5"/>
<line x1="531" y1="18.75" x2="857" y2="18.75" stroke="#F2F2F2" stroke-width="0.5"/>
</svg>
